<svg width="108" height="32" viewBox="0 0 108 32" fill="none" xmlns="http://www.w3.org/2000/svg">
<g id="Frame 2087326545">
<g id="Group 2087325924">
<path id="Vector 585" d="M0 0H14.4L42.4 32V0H59.2V15.2L42.4 32H26.4V15.2H11.2L0 0Z" fill="black"/>
<path id="Vector 586" d="M80.8008 0L64.8008 14.4V32H80.8008V0Z" fill="black"/>
<path id="Ellipse 343" d="M106.378 19.4977C106.378 17.0186 105.89 14.5638 104.941 12.2733C103.992 9.98294 102.602 7.90182 100.849 6.14881C99.0959 4.3958 97.0148 3.00524 94.7244 2.05652C92.434 1.10781 89.9791 0.619506 87.5 0.619507L87.5 12.8072C88.3786 12.8072 89.2486 12.9802 90.0604 13.3164C90.8721 13.6527 91.6097 14.1455 92.231 14.7668C92.8522 15.3881 93.3451 16.1256 93.6813 16.9374C94.0175 17.7491 94.1906 18.6191 94.1906 19.4977L106.378 19.4977Z" fill="black"/>
</g>
</g>
</svg>
